<svg xmlns="http://www.w3.org/2000/svg" xmlns:xlink="http://www.w3.org/1999/xlink" width="200" zoomAndPan="magnify" viewBox="0 0 150 37.5" height="50" preserveAspectRatio="xMidYMid meet" version="1.0"><defs><g/></defs><g fill="#e14870" fill-opacity="1"><g transform="translate(28.390985, 23.785584)"><g><path d="M 1.109375 -0.4375 L 1.09375 -5.015625 L 1.125 -5.375 L 1.09375 -5.65625 L 1.109375 -5.953125 L 1.140625 -6.234375 L 1.109375 -6.578125 L 1.140625 -6.859375 L 1.125 -7.171875 L 1.09375 -7.4375 L 1.15625 -9.140625 L 1.109375 -9.609375 L 1.15625 -10.234375 L 1.25 -10.5 L 1.59375 -10.671875 L 2.015625 -10.65625 L 2.328125 -10.6875 L 3.109375 -10.6875 L 3.390625 -10.65625 L 3.984375 -10.65625 L 4.453125 -10.6875 L 4.765625 -10.671875 L 5.21875 -10.703125 L 5.5 -10.671875 L 6.09375 -10.703125 L 6.421875 -10.65625 L 7.34375 -10.671875 L 7.609375 -10.5 L 7.78125 -10.046875 L 7.75 -9.46875 L 7.78125 -8.6875 L 7.640625 -8.375 L 7.328125 -8.234375 L 6.171875 -8.265625 L 5.84375 -8.234375 L 5.546875 -8.25 L 5.265625 -8.234375 L 4.828125 -8.265625 L 4.328125 -8.265625 L 4.046875 -8.0625 L 3.890625 -7.75 L 3.921875 -7.0625 L 3.890625 -6.78125 L 3.890625 -6.34375 L 4.0625 -6.03125 L 4.359375 -5.90625 L 4.703125 -5.921875 L 5.296875 -5.84375 L 6.109375 -5.90625 L 6.859375 -5.875 L 7.171875 -5.75 L 7.328125 -5.453125 L 7.34375 -4.09375 L 7.1875 -3.625 L 6.875 -3.46875 L 6.25 -3.4375 L 5.9375 -3.46875 L 5.625 -3.453125 L 5.3125 -3.484375 L 5 -3.421875 L 4.6875 -3.484375 L 4.34375 -3.453125 L 4.046875 -3.3125 L 3.90625 -3 L 3.921875 -1.390625 L 3.890625 -1.09375 L 3.9375 -0.609375 L 3.75 -0.15625 L 3.4375 -0.015625 L 2.671875 0.046875 L 1.609375 0 L 1.265625 -0.15625 Z M 2.609375 -1.09375 L 2.671875 -1.390625 L 2.65625 -1.671875 L 2.703125 -3.75 L 2.65625 -4.0625 L 2.828125 -4.359375 L 3.15625 -4.5 L 3.484375 -4.515625 L 3.765625 -4.46875 L 4.09375 -4.453125 L 4.375 -4.515625 L 4.65625 -4.484375 L 5.3125 -4.53125 L 5.78125 -4.5 L 6.25 -4.5625 L 6.234375 -4.75 L 5.921875 -4.859375 L 5.328125 -4.875 L 4.828125 -4.8125 L 4.53125 -4.875 L 3.140625 -4.8125 L 2.8125 -5 L 2.6875 -5.265625 L 2.65625 -7.078125 L 2.6875 -7.359375 L 2.671875 -8.8125 L 2.8125 -9.140625 L 3.15625 -9.28125 L 3.4375 -9.328125 L 4.90625 -9.265625 L 5.34375 -9.3125 L 6.234375 -9.3125 L 6.6875 -9.359375 L 6.703125 -9.5 L 6.421875 -9.609375 L 6.09375 -9.640625 L 5.765625 -9.625 L 5.46875 -9.640625 L 4.625 -9.59375 L 3.984375 -9.625 L 3.40625 -9.609375 L 3.0625 -9.625 L 2.78125 -9.625 L 2.484375 -9.453125 L 2.34375 -9.15625 L 2.359375 -6.03125 L 2.328125 -5.75 L 2.359375 -2.015625 L 2.328125 -1.703125 L 2.328125 -1.4375 L 2.4375 -1.125 Z M 2.609375 -1.09375 "/></g></g></g><g fill="#e14870" fill-opacity="1"><g transform="translate(36.707031, 23.785584)"><g><path d="M 5.703125 0.1875 L 5.390625 0.15625 L 4.84375 0.03125 L 4.5 0 L 4.0625 -0.15625 L 2.875 -0.765625 L 2.359375 -1.15625 L 2.203125 -1.359375 L 1.96875 -1.578125 L 1.765625 -1.8125 L 1.59375 -2 L 0.890625 -3.390625 L 0.75 -3.96875 L 0.71875 -4.265625 L 0.640625 -4.53125 L 0.59375 -4.859375 L 0.640625 -6.09375 L 0.90625 -7.265625 L 1.125 -7.84375 L 1.609375 -8.65625 L 2.34375 -9.53125 L 2.875 -9.90625 L 3.140625 -10.046875 L 3.375 -10.21875 L 4.515625 -10.640625 L 6.140625 -10.875 L 6.546875 -10.859375 L 7.4375 -10.703125 L 8.609375 -10.328125 L 8.84375 -10.171875 L 9.296875 -9.96875 L 9.640625 -9.71875 L 10.09375 -9.34375 L 10.515625 -8.875 L 10.859375 -8.40625 L 11.140625 -7.84375 L 11.53125 -6.703125 L 11.625 -6.078125 L 11.671875 -5.3125 L 11.625 -4.875 L 11.609375 -4.546875 L 11.53125 -4.25 L 11.515625 -3.96875 L 11.390625 -3.390625 L 11.15625 -2.8125 L 10.484375 -1.78125 L 10.28125 -1.578125 L 10.078125 -1.296875 L 9.640625 -0.9375 L 9.359375 -0.796875 L 9.125 -0.609375 L 8.625 -0.328125 L 7.484375 0.046875 L 6.5625 0.171875 Z M 6.5625 -1.015625 L 6.875 -1.046875 L 7.5 -1.171875 L 7.796875 -1.265625 L 8.375 -1.53125 L 8.640625 -1.671875 L 8.890625 -1.875 L 9.53125 -2.515625 L 10.125 -3.609375 L 10.1875 -3.921875 L 10.296875 -4.25 L 10.34375 -4.53125 L 10.390625 -5.34375 L 10.3125 -6.4375 L 10.03125 -7.34375 L 9.890625 -7.578125 L 9.671875 -7.84375 L 9.53125 -8.140625 L 9.078125 -8.578125 L 8.34375 -9.109375 L 7.203125 -9.578125 L 6.875 -9.609375 L 6.578125 -9.65625 L 6.171875 -9.671875 L 5.421875 -9.625 L 4.75 -9.46875 L 4.484375 -9.375 L 3.40625 -8.765625 L 3.203125 -8.5625 L 2.921875 -8.328125 L 2.578125 -7.890625 L 2.234375 -7.3125 L 2.109375 -7.03125 L 2.015625 -6.703125 L 1.984375 -6.421875 L 1.84375 -5.78125 L 1.84375 -4.859375 L 1.90625 -4.5625 L 1.9375 -4.25 L 2 -3.953125 L 2.40625 -3.046875 L 2.71875 -2.578125 L 2.96875 -2.3125 L 3.125 -2.078125 L 3.65625 -1.703125 L 3.96875 -1.5625 L 4.203125 -1.421875 L 4.796875 -1.1875 L 5.328125 -1.046875 L 6.1875 -0.984375 Z M 5.703125 -1.34375 L 5.125 -1.421875 L 4.5 -1.640625 L 4.21875 -1.765625 L 4.015625 -1.890625 L 3.71875 -2.03125 L 3.3125 -2.40625 L 2.90625 -2.890625 L 2.765625 -3.109375 L 2.625 -3.421875 L 2.421875 -3.671875 L 2.34375 -3.984375 L 2.3125 -4.28125 L 2.203125 -4.5625 L 2.1875 -5.78125 L 2.359375 -6.65625 L 2.578125 -7.25 L 2.703125 -7.5 L 3.265625 -8.265625 L 4 -8.8125 L 5.109375 -9.234375 L 6.140625 -9.3125 L 6.578125 -9.296875 L 7.140625 -9.1875 L 8 -8.9375 L 8.296875 -8.765625 L 8.96875 -8.25 L 9.171875 -8.046875 L 9.671875 -7.234375 L 9.75 -6.96875 L 9.890625 -6.703125 L 10.03125 -6.125 L 10.09375 -4.875 L 10.046875 -4.546875 L 9.921875 -4.25 L 9.875 -3.953125 L 9.578125 -3.15625 L 9.390625 -2.90625 L 8.546875 -2.03125 L 7.703125 -1.609375 L 7.46875 -1.53125 L 6.5625 -1.34375 L 6.140625 -1.3125 Z M 6.5625 -2.515625 L 6.875 -2.578125 L 7.09375 -2.6875 L 7.375 -2.765625 L 8.109375 -3.265625 L 8.3125 -3.515625 L 8.40625 -3.734375 L 8.578125 -4.015625 L 8.6875 -4.296875 L 8.8125 -4.859375 L 8.84375 -5.78125 L 8.796875 -6.0625 L 8.65625 -6.34375 L 8.46875 -6.9375 L 7.875 -7.5625 L 7.40625 -7.890625 L 7.125 -8.015625 L 6.859375 -8.078125 L 6.125 -8.171875 L 5.6875 -8.140625 L 5.09375 -7.984375 L 4.90625 -7.90625 L 4.140625 -7.390625 L 3.765625 -6.90625 L 3.671875 -6.625 L 3.5625 -6.34375 L 3.515625 -6.0625 L 3.4375 -5.78125 L 3.4375 -4.859375 L 3.5625 -4.296875 L 3.6875 -4.015625 L 3.765625 -3.765625 L 3.984375 -3.484375 L 4.1875 -3.265625 L 4.59375 -2.9375 L 4.84375 -2.796875 L 5.390625 -2.5625 L 5.71875 -2.515625 Z M 12.046875 -4.90625 L 12.0625 -4.953125 L 12 -4.828125 Z M 12.046875 -4.90625 "/></g></g></g><g fill="#e14870" fill-opacity="1"><g transform="translate(48.944588, 23.785584)"><g><path d="M 1.140625 -0.4375 L 1.109375 -0.765625 L 1.171875 -1.046875 L 1.140625 -1.359375 L 1.15625 -3.21875 L 1.125 -3.5 L 1.109375 -4.109375 L 1.15625 -4.40625 L 1.109375 -5.015625 L 1.15625 -5.3125 L 1.109375 -5.96875 L 1.15625 -6.265625 L 1.125 -6.5625 L 1.171875 -6.84375 L 1.125 -7.15625 L 1.15625 -7.46875 L 1.140625 -7.75 L 1.1875 -8.09375 L 1.15625 -8.375 L 1.109375 -8.6875 L 1.15625 -9 L 1.1875 -9.296875 L 1.09375 -10.09375 L 1.296875 -10.5 L 1.734375 -10.671875 L 3.328125 -10.703125 L 3.71875 -10.515625 L 3.875 -10.0625 L 3.90625 -9.3125 L 3.875 -8.96875 L 3.921875 -6.59375 L 3.875 -6.28125 L 3.921875 -5.9375 L 3.875 -5.515625 L 3.890625 -4.75 L 3.859375 -4.421875 L 3.890625 -4.125 L 3.875 -3.78125 L 3.921875 -3.5 L 3.90625 -2.9375 L 4 -2.59375 L 4.3125 -2.453125 L 7 -2.421875 L 7.34375 -2.46875 L 7.59375 -2.328125 L 7.78125 -1.984375 L 7.734375 -1.6875 L 7.78125 -1.359375 L 7.75 -1.078125 L 7.734375 -0.78125 L 7.765625 -0.4375 L 7.609375 -0.171875 L 7.171875 -0.015625 L 1.765625 0.015625 L 1.28125 -0.171875 Z M 2.828125 -1.03125 L 4.328125 -1.0625 L 4.609375 -1.03125 L 6.34375 -1.046875 L 6.65625 -1.109375 L 6.671875 -1.28125 L 6.390625 -1.390625 L 5.6875 -1.40625 L 5.234375 -1.375 L 4.625 -1.421875 L 4.296875 -1.375 L 4 -1.375 L 3.671875 -1.40625 L 3.4375 -1.40625 L 3.125 -1.375 L 2.84375 -1.546875 L 2.71875 -1.828125 L 2.734375 -3.375 L 2.671875 -3.671875 L 2.71875 -4.3125 L 2.640625 -4.984375 L 2.71875 -5.578125 L 2.71875 -6.15625 L 2.65625 -6.5 L 2.703125 -6.796875 L 2.6875 -7.109375 L 2.71875 -7.390625 L 2.65625 -8.03125 L 2.703125 -8.34375 L 2.671875 -8.65625 L 2.671875 -8.96875 L 2.703125 -9.28125 L 2.59375 -9.578125 L 2.40625 -9.5625 L 2.328125 -9.25 L 2.375 -8.640625 L 2.328125 -7.828125 L 2.375 -7.40625 L 2.328125 -6.765625 L 2.375 -6.1875 L 2.34375 -5.828125 L 2.375 -5.5625 L 2.328125 -4.9375 L 2.375 -4.59375 L 2.328125 -3.984375 L 2.359375 -3.515625 L 2.328125 -3.203125 L 2.328125 -1.515625 L 2.515625 -1.1875 Z M 2.828125 -1.03125 "/></g></g></g><g fill="#e14870" fill-opacity="1"><g transform="translate(57.153821, 23.785584)"><g><path d="M 1.140625 -0.4375 L 1.109375 -0.765625 L 1.171875 -1.046875 L 1.140625 -1.359375 L 1.15625 -3.21875 L 1.125 -3.5 L 1.109375 -4.109375 L 1.15625 -4.40625 L 1.109375 -5.015625 L 1.15625 -5.3125 L 1.109375 -5.96875 L 1.15625 -6.265625 L 1.125 -6.5625 L 1.171875 -6.84375 L 1.125 -7.15625 L 1.15625 -7.46875 L 1.140625 -7.75 L 1.1875 -8.09375 L 1.15625 -8.375 L 1.109375 -8.6875 L 1.15625 -9 L 1.1875 -9.296875 L 1.09375 -10.09375 L 1.296875 -10.5 L 1.734375 -10.671875 L 3.328125 -10.703125 L 3.71875 -10.515625 L 3.875 -10.0625 L 3.90625 -9.3125 L 3.875 -8.96875 L 3.921875 -6.59375 L 3.875 -6.28125 L 3.921875 -5.9375 L 3.875 -5.515625 L 3.890625 -4.75 L 3.859375 -4.421875 L 3.890625 -4.125 L 3.875 -3.78125 L 3.921875 -3.5 L 3.90625 -2.9375 L 4 -2.59375 L 4.3125 -2.453125 L 7 -2.421875 L 7.34375 -2.46875 L 7.59375 -2.328125 L 7.78125 -1.984375 L 7.734375 -1.6875 L 7.78125 -1.359375 L 7.75 -1.078125 L 7.734375 -0.78125 L 7.765625 -0.4375 L 7.609375 -0.171875 L 7.171875 -0.015625 L 1.765625 0.015625 L 1.28125 -0.171875 Z M 2.828125 -1.03125 L 4.328125 -1.0625 L 4.609375 -1.03125 L 6.34375 -1.046875 L 6.65625 -1.109375 L 6.671875 -1.28125 L 6.390625 -1.390625 L 5.6875 -1.40625 L 5.234375 -1.375 L 4.625 -1.421875 L 4.296875 -1.375 L 4 -1.375 L 3.671875 -1.40625 L 3.4375 -1.40625 L 3.125 -1.375 L 2.84375 -1.546875 L 2.71875 -1.828125 L 2.734375 -3.375 L 2.671875 -3.671875 L 2.71875 -4.3125 L 2.640625 -4.984375 L 2.71875 -5.578125 L 2.71875 -6.15625 L 2.65625 -6.5 L 2.703125 -6.796875 L 2.6875 -7.109375 L 2.71875 -7.390625 L 2.65625 -8.03125 L 2.703125 -8.34375 L 2.671875 -8.65625 L 2.671875 -8.96875 L 2.703125 -9.28125 L 2.59375 -9.578125 L 2.40625 -9.5625 L 2.328125 -9.25 L 2.375 -8.640625 L 2.328125 -7.828125 L 2.375 -7.40625 L 2.328125 -6.765625 L 2.375 -6.1875 L 2.34375 -5.828125 L 2.375 -5.5625 L 2.328125 -4.9375 L 2.375 -4.59375 L 2.328125 -3.984375 L 2.359375 -3.515625 L 2.328125 -3.203125 L 2.328125 -1.515625 L 2.515625 -1.1875 Z M 2.828125 -1.03125 "/></g></g></g><g fill="#e14870" fill-opacity="1"><g transform="translate(65.363053, 23.785584)"><g><path d="M 5.703125 0.1875 L 5.390625 0.15625 L 4.84375 0.03125 L 4.5 0 L 4.0625 -0.15625 L 2.875 -0.765625 L 2.359375 -1.15625 L 2.203125 -1.359375 L 1.96875 -1.578125 L 1.765625 -1.8125 L 1.59375 -2 L 0.890625 -3.390625 L 0.75 -3.96875 L 0.71875 -4.265625 L 0.640625 -4.53125 L 0.59375 -4.859375 L 0.640625 -6.09375 L 0.90625 -7.265625 L 1.125 -7.84375 L 1.609375 -8.65625 L 2.34375 -9.53125 L 2.875 -9.90625 L 3.140625 -10.046875 L 3.375 -10.21875 L 4.515625 -10.640625 L 6.140625 -10.875 L 6.546875 -10.859375 L 7.4375 -10.703125 L 8.609375 -10.328125 L 8.84375 -10.171875 L 9.296875 -9.96875 L 9.640625 -9.71875 L 10.09375 -9.34375 L 10.515625 -8.875 L 10.859375 -8.40625 L 11.140625 -7.84375 L 11.53125 -6.703125 L 11.625 -6.078125 L 11.671875 -5.3125 L 11.625 -4.875 L 11.609375 -4.546875 L 11.53125 -4.25 L 11.515625 -3.96875 L 11.390625 -3.390625 L 11.15625 -2.8125 L 10.484375 -1.78125 L 10.28125 -1.578125 L 10.078125 -1.296875 L 9.640625 -0.9375 L 9.359375 -0.796875 L 9.125 -0.609375 L 8.625 -0.328125 L 7.484375 0.046875 L 6.5625 0.171875 Z M 6.5625 -1.015625 L 6.875 -1.046875 L 7.5 -1.171875 L 7.796875 -1.265625 L 8.375 -1.53125 L 8.640625 -1.671875 L 8.890625 -1.875 L 9.53125 -2.515625 L 10.125 -3.609375 L 10.1875 -3.921875 L 10.296875 -4.25 L 10.34375 -4.53125 L 10.390625 -5.34375 L 10.3125 -6.4375 L 10.03125 -7.34375 L 9.890625 -7.578125 L 9.671875 -7.84375 L 9.53125 -8.140625 L 9.078125 -8.578125 L 8.34375 -9.109375 L 7.203125 -9.578125 L 6.875 -9.609375 L 6.578125 -9.65625 L 6.171875 -9.671875 L 5.421875 -9.625 L 4.75 -9.46875 L 4.484375 -9.375 L 3.40625 -8.765625 L 3.203125 -8.5625 L 2.921875 -8.328125 L 2.578125 -7.890625 L 2.234375 -7.3125 L 2.109375 -7.03125 L 2.015625 -6.703125 L 1.984375 -6.421875 L 1.84375 -5.78125 L 1.84375 -4.859375 L 1.90625 -4.5625 L 1.9375 -4.25 L 2 -3.953125 L 2.40625 -3.046875 L 2.71875 -2.578125 L 2.96875 -2.3125 L 3.125 -2.078125 L 3.65625 -1.703125 L 3.96875 -1.5625 L 4.203125 -1.421875 L 4.796875 -1.1875 L 5.328125 -1.046875 L 6.1875 -0.984375 Z M 5.703125 -1.34375 L 5.125 -1.421875 L 4.5 -1.640625 L 4.21875 -1.765625 L 4.015625 -1.890625 L 3.71875 -2.03125 L 3.3125 -2.40625 L 2.90625 -2.890625 L 2.765625 -3.109375 L 2.625 -3.421875 L 2.421875 -3.671875 L 2.34375 -3.984375 L 2.3125 -4.28125 L 2.203125 -4.5625 L 2.1875 -5.78125 L 2.359375 -6.65625 L 2.578125 -7.25 L 2.703125 -7.5 L 3.265625 -8.265625 L 4 -8.8125 L 5.109375 -9.234375 L 6.140625 -9.3125 L 6.578125 -9.296875 L 7.140625 -9.1875 L 8 -8.9375 L 8.296875 -8.765625 L 8.96875 -8.25 L 9.171875 -8.046875 L 9.671875 -7.234375 L 9.75 -6.96875 L 9.890625 -6.703125 L 10.03125 -6.125 L 10.09375 -4.875 L 10.046875 -4.546875 L 9.921875 -4.25 L 9.875 -3.953125 L 9.578125 -3.15625 L 9.390625 -2.90625 L 8.546875 -2.03125 L 7.703125 -1.609375 L 7.46875 -1.53125 L 6.5625 -1.34375 L 6.140625 -1.3125 Z M 6.5625 -2.515625 L 6.875 -2.578125 L 7.09375 -2.6875 L 7.375 -2.765625 L 8.109375 -3.265625 L 8.3125 -3.515625 L 8.40625 -3.734375 L 8.578125 -4.015625 L 8.6875 -4.296875 L 8.8125 -4.859375 L 8.84375 -5.78125 L 8.796875 -6.0625 L 8.65625 -6.34375 L 8.46875 -6.9375 L 7.875 -7.5625 L 7.40625 -7.890625 L 7.125 -8.015625 L 6.859375 -8.078125 L 6.125 -8.171875 L 5.6875 -8.140625 L 5.09375 -7.984375 L 4.90625 -7.90625 L 4.140625 -7.390625 L 3.765625 -6.90625 L 3.671875 -6.625 L 3.5625 -6.34375 L 3.515625 -6.0625 L 3.4375 -5.78125 L 3.4375 -4.859375 L 3.5625 -4.296875 L 3.6875 -4.015625 L 3.765625 -3.765625 L 3.984375 -3.484375 L 4.1875 -3.265625 L 4.59375 -2.9375 L 4.84375 -2.796875 L 5.390625 -2.5625 L 5.71875 -2.515625 Z M 12.046875 -4.90625 L 12.0625 -4.953125 L 12 -4.828125 Z M 12.046875 -4.90625 "/></g></g></g><g fill="#e14870" fill-opacity="1"><g transform="translate(77.600608, 23.785584)"><g><path d="M 3.71875 -0.3125 L 3.484375 -0.890625 L 3.328125 -1.484375 L 2.203125 -4.328125 L 2.15625 -4.625 L 2 -4.953125 L 1.953125 -5.234375 L 1.609375 -6.078125 L 1.546875 -6.34375 L 1.40625 -6.65625 L 1.328125 -6.9375 L 1.1875 -7.21875 L 0.90625 -8.09375 L 0.75 -8.34375 L 0.671875 -8.671875 L 0.53125 -8.953125 L 0.34375 -9.515625 L 0.21875 -9.796875 L 0.140625 -10.203125 L 0.21875 -10.546875 L 0.53125 -10.65625 L 1.109375 -10.65625 L 1.359375 -10.6875 L 2.328125 -10.671875 L 2.578125 -10.703125 L 2.96875 -10.515625 L 3.203125 -10.25 L 3.28125 -9.9375 L 3.375 -9.65625 L 3.4375 -9.34375 L 3.65625 -8.75 L 3.8125 -8.453125 L 4.6875 -5.078125 L 4.78125 -5.09375 L 4.953125 -5.40625 L 4.984375 -5.65625 L 5.15625 -5.984375 L 5.265625 -6.28125 L 5.3125 -6.5625 L 5.640625 -7.421875 L 5.734375 -7.75 L 6.171875 -8.875 L 6.3125 -9.46875 L 6.578125 -10.0625 L 6.765625 -10.359375 L 7.09375 -10.53125 L 7.390625 -10.515625 L 7.78125 -10.375 L 8.015625 -10.078125 L 8.65625 -8.3125 L 8.703125 -8.015625 L 8.84375 -7.703125 L 8.90625 -7.421875 L 9.453125 -5.953125 L 9.5 -5.65625 L 9.65625 -5.40625 L 9.703125 -5.125 L 9.84375 -5.09375 L 10.515625 -7.734375 L 10.703125 -8.203125 L 10.78125 -8.46875 L 10.921875 -8.78125 L 11.171875 -9.671875 L 11.3125 -9.9375 L 11.390625 -10.25 L 11.625 -10.515625 L 11.96875 -10.6875 L 12.25 -10.671875 L 13.90625 -10.703125 L 14.375 -10.578125 L 14.4375 -10.21875 L 14.046875 -8.9375 L 13.875 -8.671875 L 13.609375 -7.796875 L 13.453125 -7.53125 L 13.390625 -7.234375 L 13.25 -6.9375 L 13.09375 -6.359375 L 12.9375 -6.078125 L 12.578125 -4.953125 L 12.25 -4.25 L 12.125 -3.796875 L 12 -3.484375 L 11.9375 -3.1875 L 11.78125 -2.921875 L 11.59375 -2.3125 L 11.34375 -1.765625 L 11.171875 -1.171875 L 10.90625 -0.609375 L 10.84375 -0.328125 L 10.578125 -0.046875 L 10.203125 0.09375 L 9.671875 0.125 L 9.328125 -0.015625 L 9.046875 -0.34375 L 8.828125 -0.90625 L 8.765625 -1.1875 L 8.65625 -1.46875 L 8.484375 -1.765625 L 8.265625 -2.328125 L 8.171875 -2.625 L 7.921875 -3.171875 L 7.84375 -3.484375 L 7.703125 -3.765625 L 7.5625 -4.0625 L 7.484375 -4.3125 L 7.328125 -4.625 L 7.203125 -4.609375 L 7.109375 -4.328125 L 6.84375 -3.734375 L 6.78125 -3.484375 L 6.171875 -2.03125 L 6.09375 -1.71875 L 5.96875 -1.484375 L 5.75 -0.875 L 5.484375 -0.328125 L 5.234375 -0.03125 L 4.890625 0.09375 L 4.296875 0.09375 L 3.953125 -0.015625 Z M 4.75 -1.375 L 4.953125 -1.65625 L 5.015625 -1.921875 L 5.640625 -3.34375 L 5.671875 -3.625 L 5.8125 -3.875 L 5.875 -4.140625 L 6.65625 -6.109375 L 6.8125 -6.390625 L 7.140625 -7.25 L 7.296875 -7.421875 L 7.453125 -7.265625 L 7.671875 -6.671875 L 7.75 -6.390625 L 7.984375 -5.84375 L 8.0625 -5.5625 L 8.328125 -5.03125 L 8.84375 -3.59375 L 9.109375 -3.046875 L 9.28125 -2.484375 L 9.40625 -2.21875 L 9.5 -1.9375 L 9.625 -1.640625 L 9.78125 -1.359375 L 10.03125 -1.359375 L 10.234375 -1.65625 L 10.3125 -1.9375 L 10.375 -2.265625 L 10.65625 -3.15625 L 10.90625 -3.71875 L 11.484375 -5.46875 L 11.515625 -5.765625 L 12.53125 -8.71875 L 12.625 -9.328125 L 12.421875 -9.296875 L 12.265625 -9.015625 L 12.046875 -8.421875 L 11.953125 -8.140625 L 11.90625 -7.84375 L 11.578125 -6.96875 L 11.40625 -6.34375 L 11.296875 -6.078125 L 11.21875 -5.765625 L 11.078125 -5.484375 L 11.03125 -5.21875 L 10.703125 -4.3125 L 10.640625 -4.03125 L 10.546875 -3.734375 L 10.421875 -3.453125 L 10.34375 -3.15625 L 10.234375 -2.859375 L 10.15625 -2.5625 L 10.046875 -2.296875 L 9.890625 -2.125 L 9.734375 -2.28125 L 9.65625 -2.546875 L 9.03125 -4.03125 L 8.96875 -4.3125 L 8.8125 -4.578125 L 7.625 -7.78125 L 7.375 -8.078125 L 7.15625 -8.109375 L 6.171875 -5.75 L 6.09375 -5.4375 L 5.265625 -3.453125 L 5.1875 -3.125 L 5.03125 -2.875 L 4.96875 -2.5625 L 4.796875 -2.28125 L 4.6875 -2.140625 L 4.5 -2.296875 L 4.4375 -2.59375 L 3.734375 -4.640625 L 3.671875 -4.9375 L 3.265625 -6.09375 L 3.125 -6.359375 L 2.9375 -6.96875 L 2.90625 -7.25 L 2.796875 -7.578125 L 2.671875 -7.875 L 2.578125 -8.140625 L 2.453125 -8.421875 L 2.40625 -8.734375 L 2.328125 -9.015625 L 2.09375 -9.265625 L 1.9375 -9.296875 L 1.9375 -9 L 2.34375 -7.84375 L 2.40625 -7.546875 L 2.59375 -6.9375 L 2.859375 -6.359375 L 2.984375 -5.78125 L 3.0625 -5.484375 L 3.328125 -4.890625 L 3.484375 -4.3125 L 3.625 -4 L 3.671875 -3.71875 L 3.875 -3.09375 L 4 -2.859375 L 4.0625 -2.546875 L 4.203125 -2.234375 L 4.265625 -1.96875 L 4.375 -1.65625 L 4.515625 -1.375 Z M 4.75 -1.375 "/></g></g></g><g fill="#e14870" fill-opacity="1"><g transform="translate(92.157502, 23.785584)"><g/></g></g><g fill="#e14870" fill-opacity="1"><g transform="translate(96.292636, 23.785584)"><g><path d="M 5.25 0.203125 L 4.765625 0.171875 L 4.453125 0.171875 L 3.859375 0.046875 L 3.28125 -0.21875 L 3.046875 -0.34375 L 2.75 -0.484375 L 2.265625 -0.8125 L 2.03125 -1 L 1.84375 -1.21875 L 1.5 -1.765625 L 1.25 -2.296875 L 1.09375 -2.921875 L 1 -4.140625 L 1.046875 -6.59375 L 1.015625 -6.890625 L 1.0625 -7.1875 L 1.015625 -9.328125 L 1.046875 -9.578125 L 1.046875 -9.9375 L 1.015625 -10.25 L 1.21875 -10.53125 L 1.546875 -10.65625 L 1.859375 -10.703125 L 2.515625 -10.640625 L 2.828125 -10.6875 L 3.109375 -10.6875 L 3.4375 -10.546875 L 3.625 -10.21875 L 3.65625 -9.765625 L 3.625 -9.28125 L 3.65625 -9.046875 L 3.609375 -4.140625 L 3.6875 -3.25 L 3.78125 -2.96875 L 3.96875 -2.71875 L 4.21875 -2.53125 L 4.46875 -2.375 L 4.828125 -2.3125 L 5.734375 -2.3125 L 6.28125 -2.5 L 6.53125 -2.6875 L 6.703125 -2.984375 L 6.796875 -3.21875 L 6.90625 -4.171875 L 6.875 -10.1875 L 7.03125 -10.515625 L 7.359375 -10.671875 L 8 -10.625 L 8.96875 -10.65625 L 9.296875 -10.546875 L 9.5 -10.234375 L 9.453125 -9.921875 L 9.453125 -8.65625 L 9.484375 -8.40625 L 9.453125 -8.078125 L 9.484375 -7.78125 L 9.484375 -3.65625 L 9.40625 -2.9375 L 9.265625 -2.296875 L 9.109375 -2.03125 L 9.015625 -1.71875 L 8.671875 -1.1875 L 8.25 -0.765625 L 7.734375 -0.421875 L 7.1875 -0.140625 L 6 0.171875 L 5.703125 0.15625 Z M 5.671875 -0.875 L 6.140625 -1 L 6.578125 -1.0625 L 7.078125 -1.34375 L 7.609375 -1.71875 L 8.09375 -2.375 L 8.28125 -3 L 8.359375 -3.75 L 8.328125 -4.171875 L 8.375 -4.8125 L 8.328125 -5.0625 L 8.359375 -5.375 L 8.328125 -6.015625 L 8.359375 -6.28125 L 8.359375 -8.65625 L 8.328125 -8.984375 L 8.34375 -9.3125 L 8.25 -9.609375 L 8.09375 -9.625 L 8.046875 -9.296875 L 8 -8.53125 L 8.03125 -7.78125 L 8 -7.453125 L 8.046875 -6.3125 L 8.015625 -5.984375 L 8.046875 -5.359375 L 8 -5.046875 L 8.046875 -4.3125 L 7.984375 -3.234375 L 7.890625 -2.953125 L 7.828125 -2.703125 L 7.671875 -2.375 L 7.53125 -2.171875 L 7.109375 -1.71875 L 6.859375 -1.578125 L 6.578125 -1.484375 L 6.3125 -1.34375 L 5.71875 -1.21875 L 4.765625 -1.21875 L 4.484375 -1.28125 L 4.203125 -1.296875 L 3.890625 -1.40625 L 3.171875 -1.90625 L 2.953125 -2.15625 L 2.8125 -2.390625 L 2.671875 -2.71875 L 2.59375 -2.96875 L 2.53125 -3.28125 L 2.46875 -4.5 L 2.515625 -4.765625 L 2.46875 -9.25 L 2.375 -9.609375 L 2.265625 -9.59375 L 2.15625 -9.328125 L 2.140625 -6.609375 L 2.171875 -6.28125 L 2.140625 -5.984375 L 2.1875 -4.796875 L 2.15625 -4.421875 L 2.1875 -3.28125 L 2.234375 -2.953125 L 2.40625 -2.40625 L 2.546875 -2.15625 L 2.921875 -1.671875 L 3.375 -1.34375 L 3.640625 -1.203125 L 4.484375 -0.921875 Z M 5.671875 -0.875 "/></g></g></g><g fill="#e14870" fill-opacity="1"><g transform="translate(106.821206, 23.785584)"><g><path d="M 4.421875 0.125 L 3.78125 0.078125 L 3.5 -0.03125 L 3.15625 -0.078125 L 2.0625 -0.578125 L 1.796875 -0.75 L 1.359375 -1.1875 L 0.984375 -1.65625 L 0.734375 -2.28125 L 0.671875 -2.546875 L 0.640625 -2.890625 L 0.75 -3.203125 L 1.046875 -3.34375 L 1.359375 -3.328125 L 1.65625 -3.359375 L 2.828125 -3.328125 L 3.125 -3.203125 L 3.359375 -2.90625 L 3.59375 -2.6875 L 3.859375 -2.515625 L 4.09375 -2.40625 L 4.4375 -2.328125 L 4.90625 -2.296875 L 5.328125 -2.3125 L 5.890625 -2.46875 L 6.140625 -2.609375 L 6.375 -2.828125 L 6.46875 -3.21875 L 6.390625 -3.625 L 6.1875 -3.796875 L 5.640625 -4.03125 L 5.328125 -4.046875 L 5.046875 -4.09375 L 3.796875 -4.1875 L 3.25 -4.3125 L 2.375 -4.59375 L 1.84375 -4.921875 L 1.421875 -5.3125 L 1.03125 -5.8125 L 0.84375 -6.34375 L 0.734375 -6.78125 L 0.71875 -7.796875 L 0.9375 -8.6875 L 1.078125 -8.9375 L 1.1875 -9.203125 L 1.390625 -9.40625 L 1.5625 -9.65625 L 1.828125 -9.84375 L 2.046875 -10.046875 L 2.34375 -10.234375 L 2.59375 -10.3125 L 2.84375 -10.46875 L 3.109375 -10.578125 L 4.3125 -10.828125 L 5.171875 -10.84375 L 5.515625 -10.765625 L 5.78125 -10.734375 L 6.109375 -10.671875 L 6.953125 -10.375 L 7.921875 -9.703125 L 8.125 -9.484375 L 8.28125 -9.234375 L 8.46875 -8.984375 L 8.71875 -8.4375 L 8.84375 -7.84375 L 8.703125 -7.5625 L 8.40625 -7.375 L 8.125 -7.40625 L 7.84375 -7.375 L 6.84375 -7.40625 L 6.359375 -7.5625 L 5.859375 -8.09375 L 5.640625 -8.28125 L 5.296875 -8.390625 L 4.3125 -8.359375 L 4.046875 -8.296875 L 3.828125 -8.21875 L 3.578125 -8.015625 L 3.40625 -7.796875 L 3.359375 -7.40625 L 3.375 -6.984375 L 3.625 -6.75 L 3.84375 -6.625 L 4.484375 -6.390625 L 6.03125 -6.203125 L 7.28125 -5.890625 L 8.09375 -5.53125 L 8.34375 -5.3125 L 8.71875 -4.84375 L 9.015625 -4.28125 L 9.09375 -3.984375 L 9.140625 -3.671875 L 9.125 -2.734375 L 9.078125 -2.453125 L 8.984375 -2.15625 L 8.875 -1.875 L 8.5625 -1.390625 L 8.140625 -0.90625 L 7.640625 -0.5625 L 6.859375 -0.140625 L 5.359375 0.15625 L 4.875 0.171875 Z M 5.375 -0.875 L 5.671875 -0.921875 L 5.984375 -0.984375 L 6.84375 -1.34375 L 7.0625 -1.515625 L 7.75 -2.1875 L 7.84375 -2.484375 L 7.953125 -2.796875 L 7.953125 -3.71875 L 7.875 -4 L 7.734375 -4.265625 L 7.5625 -4.515625 L 7.328125 -4.734375 L 6.828125 -5.046875 L 5.875 -5.3125 L 5.59375 -5.328125 L 5.28125 -5.390625 L 4.046875 -5.515625 L 3.421875 -5.671875 L 3.140625 -5.796875 L 2.890625 -5.953125 L 2.671875 -6.140625 L 2.421875 -6.359375 L 2.328125 -6.640625 L 2.25 -6.953125 L 2.203125 -7.84375 L 2.328125 -8.140625 L 2.484375 -8.40625 L 2.703125 -8.671875 L 3.140625 -9.03125 L 3.96875 -9.390625 L 4.28125 -9.453125 L 4.734375 -9.46875 L 5.203125 -9.421875 L 5.8125 -9.3125 L 6.109375 -9.203125 L 6.40625 -9.015625 L 7.15625 -8.421875 L 7.390625 -8.390625 L 7.3125 -8.671875 L 6.921875 -9.109375 L 6.671875 -9.296875 L 6.140625 -9.5625 L 5.375 -9.765625 L 4.328125 -9.78125 L 3.40625 -9.5625 L 3.125 -9.453125 L 2.734375 -9.1875 L 2.21875 -8.65625 L 1.984375 -8.125 L 1.90625 -7.8125 L 1.84375 -7.421875 L 1.859375 -6.96875 L 2.0625 -6.390625 L 2.390625 -5.921875 L 2.609375 -5.703125 L 3.171875 -5.40625 L 3.6875 -5.21875 L 4.015625 -5.203125 L 4.3125 -5.125 L 5.515625 -5.046875 L 6.375 -4.859375 L 7.171875 -4.4375 L 7.53125 -3.9375 L 7.640625 -3.65625 L 7.640625 -3.203125 L 7.59375 -2.75 L 7.515625 -2.46875 L 7.109375 -1.984375 L 6.609375 -1.609375 L 6.3125 -1.484375 L 6.015625 -1.390625 L 5.546875 -1.28125 L 4.875 -1.21875 L 4.125 -1.265625 L 3.59375 -1.421875 L 3.015625 -1.671875 L 2.328125 -2.328125 L 2.109375 -2.3125 L 2.171875 -2.078125 L 2.328125 -1.859375 L 2.546875 -1.609375 L 3.015625 -1.265625 L 3.828125 -0.96875 L 4.40625 -0.859375 Z M 5.375 -0.875 "/></g></g></g><g fill="#e14870" fill-opacity="1"><g transform="translate(116.556323, 23.785584)"><g><path d="M 1.28125 -3.734375 L 1.21875 -5.59375 L 1.171875 -5.921875 L 1.171875 -6.828125 L 1.140625 -7.140625 L 1.171875 -7.484375 L 1.09375 -8.390625 L 1.109375 -8.65625 L 1.078125 -8.984375 L 1.09375 -9.625 L 1.015625 -10.203125 L 1.1875 -10.5 L 1.484375 -10.71875 L 2.265625 -10.6875 L 2.546875 -10.71875 L 3.640625 -10.671875 L 3.921875 -10.5 L 4.046875 -10.21875 L 4.03125 -9.953125 L 4.078125 -9.3125 L 4.03125 -8.984375 L 4.078125 -8.703125 L 4.046875 -8.40625 L 4.078125 -8.078125 L 4.03125 -7.734375 L 4.046875 -7.4375 L 4 -7.125 L 3.953125 -5.625 L 4 -5.03125 L 3.921875 -4.375 L 3.9375 -4.078125 L 3.921875 -3.765625 L 3.765625 -3.5 L 3.484375 -3.328125 L 3.203125 -3.296875 L 1.71875 -3.296875 L 1.390625 -3.453125 Z M 2.65625 -4.421875 L 2.765625 -5.03125 L 2.765625 -8.375 L 2.71875 -8.6875 L 2.75 -8.984375 L 2.75 -9.28125 L 2.65625 -9.625 L 2.515625 -9.625 L 2.4375 -9.328125 L 2.375 -8.0625 L 2.40625 -7.5 L 2.375 -7.15625 L 2.40625 -6.84375 L 2.359375 -6.578125 L 2.421875 -5.9375 L 2.390625 -4.71875 L 2.453125 -4.40625 Z M 1.0625 -1.5 L 1.0625 -1.671875 L 1.140625 -1.84375 L 1.1875 -2 L 1.4375 -2.265625 L 1.734375 -2.515625 L 1.859375 -2.578125 L 2.0625 -2.640625 L 2.390625 -2.703125 L 2.75 -2.71875 L 2.921875 -2.703125 L 3.109375 -2.625 L 3.296875 -2.59375 L 3.4375 -2.5 L 3.609375 -2.40625 L 3.703125 -2.265625 L 3.8125 -2.171875 L 3.921875 -2.015625 L 4.015625 -1.8125 L 4.046875 -1.65625 L 4.109375 -1.46875 L 4.09375 -1.109375 L 3.953125 -0.640625 L 3.84375 -0.484375 L 3.703125 -0.328125 L 3.578125 -0.21875 L 3.453125 -0.15625 L 3.25 -0.03125 L 3.078125 0.03125 L 2.9375 0.03125 L 2.765625 0.078125 L 2.234375 0.0625 L 2.03125 0.015625 L 1.890625 -0.03125 L 1.546875 -0.234375 L 1.46875 -0.34375 L 1.296875 -0.484375 L 1.203125 -0.609375 L 1.125 -0.78125 L 1.078125 -0.953125 Z M 2.21875 -1.46875 L 2.234375 -1.140625 L 2.296875 -1.046875 L 2.421875 -0.984375 L 2.75 -0.96875 L 2.828125 -1.015625 L 2.9375 -1.171875 L 2.953125 -1.453125 L 2.828125 -1.5625 L 2.71875 -1.640625 L 2.40625 -1.640625 L 2.328125 -1.578125 Z M 2.21875 -1.46875 "/></g></g></g></svg>